<svg width="400" height="400" viewBox="0 0 400 400" fill="none" xmlns="http://www.w3.org/2000/svg">
  <!-- Background gradient -->
  <rect width="400" height="400" rx="20" fill="url(#paint0_linear)" />
  
  <!-- SuiGive logo -->
  <g transform="translate(150, 100)">
    <path d="M50 0C77.6142 0 100 22.3858 100 50C100 77.6142 77.6142 100 50 100C22.3858 100 0 77.6142 0 50C0 22.3858 22.3858 0 50 0Z" fill="#4ECDC4" />
    <path d="M70 40C70 51.0457 61.0457 60 50 60C38.9543 60 30 51.0457 30 40C30 28.9543 38.9543 20 50 20C61.0457 20 70 28.9543 70 40Z" fill="white" />
    <path d="M50 70C61.0457 70 70 78.9543 70 90C70 101.046 61.0457 110 50 110C38.9543 110 30 101.046 30 90C30 78.9543 38.9543 70 50 70Z" fill="white" />
  </g>
  
  <!-- Certificate text -->
  <text x="200" y="230" font-family="Arial, sans-serif" font-size="24" font-weight="bold" text-anchor="middle" fill="white">Donation Receipt</text>
  <text x="200" y="260" font-family="Arial, sans-serif" font-size="16" text-anchor="middle" fill="white">SuiGive NFT Certificate</text>
  <text x="200" y="290" font-family="Arial, sans-serif" font-size="14" text-anchor="middle" fill="white">Thank you for your generosity!</text>
  
  <!-- Decorative elements -->
  <circle cx="50" cy="50" r="10" fill="white" fill-opacity="0.2" />
  <circle cx="350" cy="350" r="20" fill="white" fill-opacity="0.2" />
  <circle cx="300" cy="100" r="15" fill="white" fill-opacity="0.2" />
  <circle cx="100" cy="300" r="25" fill="white" fill-opacity="0.2" />
  
  <!-- Gradient definition -->
  <defs>
    <linearGradient id="paint0_linear" x1="0" y1="0" x2="400" y2="400" gradientUnits="userSpaceOnUse">
      <stop stop-color="#1E3A8A" />
      <stop offset="1" stop-color="#3B82F6" />
    </linearGradient>
  </defs>
</svg>
