<svg xmlns="http://www.w3.org/2000/svg" width="48" height="48" viewBox="0 0 48 48" fill="none">
  <!-- Background circle with gradient -->
  <circle cx="24" cy="24" r="24" fill="url(#gradient)" />
  
  <!-- Heart symbol for giving/charity -->
  <path d="M24 35.5c-1 0-1.8-.3-2.4-.9L12.1 25c-2.2-2.2-2.2-5.8 0-8s5.8-2.2 8 0L24 20.9l3.9-3.9c2.2-2.2 5.8-2.2 8 0s2.2 5.8 0 8l-9.5 9.6c-.6.6-1.4.9-2.4.9z" fill="white" />
  
  <!-- Sui wave pattern overlay -->
  <path d="M12 32c4-2 8-1 12 1s8 3 12 1v4c-4 2-8 1-12-1s-8-3-12-1v-4z" fill="rgba(255,255,255,0.3)" />
  
  <!-- Define gradient -->
  <defs>
    <linearGradient id="gradient" x1="0%" y1="0%" x2="100%" y2="100%">
      <stop offset="0%" style="stop-color:#4F46E5;stop-opacity:1" />
      <stop offset="100%" style="stop-color:#06B6D4;stop-opacity:1" />
    </defs>
  </defs>
</svg>